<svg width="800" height="800" viewBox="0 0 800 800" fill="none" xmlns="http://www.w3.org/2000/svg">
<circle cx="400" cy="400" r="313.839" fill="#58FBDA" stroke="#2E2D36" stroke-width="7.67819"/>
<path d="M469.155 481.996L497.619 509.815L517.95 513.534L529.157 523.7" stroke="#2E2D36" stroke-width="7.67819" stroke-linecap="round"/>
<path d="M428.146 495.931V565.751L454.576 592.876V615.587" stroke="#2E2D36" stroke-width="7.67819" stroke-linecap="round"/>
<path d="M333.878 482.343L310.522 509.468L289.15 512.543L271.199 525.733" stroke="#2E2D36" stroke-width="7.67819" stroke-linecap="round"/>
<path d="M404.521 155.839C498.389 155.839 574.411 231.075 574.411 323.792C574.411 416.509 498.389 491.744 404.521 491.744C310.653 491.744 234.631 416.509 234.631 323.792C234.631 231.075 310.653 155.839 404.521 155.839Z" fill="#79FFE6" stroke="#2E2D36" stroke-width="7.67819"/>
<path d="M401.021 218.481C450.893 218.481 491.275 258.538 491.275 307.892C491.275 357.246 450.893 397.303 401.021 397.303C351.149 397.303 310.767 357.246 310.767 307.892C310.767 258.538 351.149 218.481 401.021 218.481Z" fill="white" stroke="#2E2D36" stroke-width="6.14255"/>
<circle cx="231.379" cy="476.492" r="14.8269" fill="white" stroke="#2E2D36" stroke-width="4.60691"/>
<circle cx="256.471" cy="535.8" r="14.8269" fill="white" stroke="#2E2D36" stroke-width="4.60691"/>
<circle cx="300.109" cy="582.413" r="14.8269" fill="white" stroke="#2E2D36" stroke-width="4.60691"/>
<circle cx="401.071" cy="643.307" r="14.8269" fill="white" stroke="#2E2D36" stroke-width="4.60691"/>
<circle cx="457.998" cy="631.009" r="14.8269" fill="white" stroke="#2E2D36" stroke-width="4.60691"/>
<path d="M457.304 487.798V535.601L489.139 569.123" stroke="#2E2D36" stroke-width="7.67819" stroke-linecap="round"/>
<circle cx="499.354" cy="582.413" r="14.8269" fill="white" stroke="#2E2D36" stroke-width="4.60691"/>
<circle cx="542.695" cy="535.006" r="14.8269" fill="white" stroke="#2E2D36" stroke-width="4.60691"/>
<circle cx="562.332" cy="476.393" r="14.8269" fill="white" stroke="#2E2D36" stroke-width="4.60691"/>
<path d="M303.381 465.483L289.993 476.988H248.834" stroke="#2E2D36" stroke-width="7.67819" stroke-linecap="round"/>
<path d="M351.532 489.484V531.188L312.555 569.817" stroke="#2E2D36" stroke-width="7.67819" stroke-linecap="round"/>
<path d="M371.863 494.889V569.123L345.78 596.942V615.24" stroke="#2E2D36" stroke-width="7.67819" stroke-linecap="round"/>
<path d="M401.368 498.311V625.753" stroke="#2E2D36" stroke-width="7.67819" stroke-linecap="round"/>
<path d="M496.925 465.731L505.057 473.566H545.422" stroke="#2E2D36" stroke-width="7.67819" stroke-linecap="round"/>
<ellipse cx="401.021" cy="307.892" rx="51.671" ry="53.0099" fill="#2E2D36"/>
<ellipse cx="411.286" cy="294.106" rx="18.5956" ry="19.0915" fill="white"/>
<ellipse cx="428.493" cy="322.471" rx="8.43002" ry="8.67796" fill="white"/>
<circle cx="344.143" cy="632.299" r="14.8269" fill="white" stroke="#2E2D36" stroke-width="4.60691"/>
</svg>
